<svg width="14" height="26" viewBox="0 0 14 26" fill="none" xmlns="http://www.w3.org/2000/svg">
<path id="Vector" d="M13.423 0.314063L10.1808 0.308594C6.53861 0.308594 4.18471 2.72344 4.18471 6.46094V9.29766H0.92533C0.643298 9.29766 0.415955 9.52578 0.415955 9.80781V13.918C0.415955 14.2 0.64408 14.4273 0.92533 14.4273H4.18471V24.7984C4.18471 25.0805 4.41283 25.3086 4.69408 25.3086H8.94721C9.22924 25.3086 9.45658 25.0805 9.45658 24.7992V14.4281H13.2675C13.5495 14.4281 13.7769 14.2 13.7769 13.9187L13.7785 9.80859C13.7785 9.67344 13.7246 9.54375 13.6292 9.44844C13.5339 9.35313 13.4035 9.29922 13.2683 9.29922H9.4558V6.89453C9.4558 5.73906 9.73158 5.15234 11.2371 5.15234L13.4206 5.15156C13.7019 5.15156 13.93 4.92344 13.93 4.64219V0.825781C13.93 0.544531 13.7019 0.316406 13.4214 0.316406L13.423 0.314063Z" fill="white"/>
</svg>
