<svg width="26" height="26" viewBox="0 0 26 26" fill="none" xmlns="http://www.w3.org/2000/svg">
<path id="Vector" d="M19.6972 4.78229C19.4059 4.78229 19.1212 4.86866 18.879 5.03047C18.6368 5.19229 18.4481 5.42229 18.3366 5.69138C18.2251 5.96047 18.196 6.25657 18.2528 6.54224C18.3096 6.82791 18.4499 7.09031 18.6558 7.29626C18.8618 7.50222 19.1242 7.64247 19.4099 7.6993C19.6955 7.75612 19.9916 7.72696 20.2607 7.61549C20.5298 7.50403 20.7598 7.31528 20.9216 7.0731C21.0834 6.83093 21.1698 6.5462 21.1698 6.25494C21.1698 5.86437 21.0147 5.48979 20.7385 5.21362C20.4623 4.93744 20.0877 4.78229 19.6972 4.78229ZM25.3423 7.75214C25.3185 6.73392 25.1278 5.72651 24.7778 4.77001C24.4658 3.95163 23.9801 3.21057 23.3542 2.59785C22.7466 1.96881 22.0038 1.48621 21.1821 1.18655C20.2281 0.825952 19.2196 0.630886 18.2 0.609765C16.8991 0.536133 16.4819 0.536133 13.1438 0.536133C9.80583 0.536133 9.38858 0.536133 8.08773 0.609765C7.06811 0.630886 6.05957 0.825952 5.10561 1.18655C4.28543 1.48924 3.54329 1.97143 2.93344 2.59785C2.30441 3.20554 1.82181 3.94832 1.52215 4.77001C1.16155 5.72398 0.96648 6.73251 0.94536 7.75214C0.871727 9.05298 0.871727 9.47023 0.871727 12.8083C0.871727 16.1463 0.871727 16.5635 0.94536 17.8644C0.96648 18.884 1.16155 19.8925 1.52215 20.8465C1.82181 21.6682 2.30441 22.411 2.93344 23.0187C3.54329 23.6451 4.28543 24.1273 5.10561 24.4299C6.05957 24.7905 7.06811 24.9856 8.08773 25.0067C9.38858 25.0804 9.80583 25.0804 13.1438 25.0804C16.4819 25.0804 16.8991 25.0804 18.2 25.0067C19.2196 24.9856 20.2281 24.7905 21.1821 24.4299C22.0038 24.1303 22.7466 23.6477 23.3542 23.0187C23.9829 22.4082 24.469 21.6665 24.7778 20.8465C25.1278 19.89 25.3185 18.8826 25.3423 17.8644C25.3423 16.5635 25.416 16.1463 25.416 12.8083C25.416 9.47023 25.416 9.05298 25.3423 7.75214ZM23.1333 17.7171C23.1244 18.4961 22.9833 19.2679 22.7161 19.9997C22.5202 20.5338 22.2054 21.0164 21.7957 21.411C21.3976 21.8166 20.9161 22.1307 20.3844 22.3314C19.6526 22.5986 18.8808 22.7397 18.1018 22.7487C16.8746 22.81 16.4205 22.8223 13.1929 22.8223C9.96537 22.8223 9.5113 22.8223 8.28409 22.7487C7.47522 22.7638 6.66981 22.6393 5.9033 22.3805C5.39496 22.1695 4.93546 21.8562 4.55336 21.4601C4.14604 21.0658 3.83525 20.5829 3.64523 20.0488C3.34561 19.3065 3.17943 18.5172 3.15434 17.7171C3.15434 16.4899 3.08071 16.0358 3.08071 12.8083C3.08071 9.58068 3.08071 9.12661 3.15434 7.8994C3.15984 7.10301 3.30523 6.31378 3.58386 5.5677C3.79991 5.04971 4.13153 4.58797 4.55336 4.21777C4.92621 3.79581 5.38699 3.4607 5.9033 3.236C6.65134 2.96607 7.43976 2.82498 8.235 2.81875C9.46221 2.81875 9.91628 2.74511 13.1438 2.74511C16.3714 2.74511 16.8255 2.74511 18.0527 2.81875C18.8317 2.82768 19.6035 2.96877 20.3353 3.236C20.893 3.44297 21.3935 3.77947 21.7957 4.21777C22.1978 4.59474 22.5121 5.05563 22.7161 5.5677C22.9888 6.31499 23.13 7.1039 23.1333 7.8994C23.1947 9.12661 23.207 9.58068 23.207 12.8083C23.207 16.0358 23.1947 16.4899 23.1333 17.7171ZM13.1438 6.51265C11.8992 6.51508 10.6832 6.88637 9.64955 7.57961C8.61586 8.27286 7.81085 9.25694 7.33623 10.4075C6.86161 11.5581 6.73869 12.8235 6.98299 14.044C7.22729 15.2644 7.82785 16.385 8.70879 17.2642C9.58974 18.1435 10.7115 18.7418 11.9324 18.9838C13.1533 19.2257 14.4185 19.1003 15.5682 18.6234C16.7178 18.1466 17.7003 17.3397 18.3916 16.3046C19.0828 15.2696 19.4517 14.0529 19.4517 12.8083C19.4533 11.98 19.2912 11.1596 18.9746 10.3943C18.658 9.62892 18.1933 8.93371 17.6071 8.34862C17.0208 7.76354 16.3247 7.30013 15.5587 6.98504C14.7928 6.66996 13.9721 6.50942 13.1438 6.51265ZM13.1438 16.8949C12.3356 16.8949 11.5455 16.6552 10.8734 16.2061C10.2014 15.7571 9.67761 15.1189 9.3683 14.3721C9.059 13.6254 8.97807 12.8037 9.13575 12.011C9.29344 11.2183 9.68265 10.4901 10.2542 9.91858C10.8257 9.34705 11.5539 8.95784 12.3466 8.80016C13.1393 8.64248 13.961 8.7234 14.7077 9.03271C15.4545 9.34202 16.0927 9.86581 16.5417 10.5378C16.9908 11.2099 17.2305 12 17.2305 12.8083C17.2305 13.3449 17.1248 13.8763 16.9194 14.3721C16.714 14.8679 16.413 15.3184 16.0335 15.6979C15.654 16.0774 15.2035 16.3784 14.7077 16.5838C14.2119 16.7892 13.6805 16.8949 13.1438 16.8949Z" fill="white"/>
</svg>
