<svg width="27" height="26" viewBox="0 0 27 26" fill="none" xmlns="http://www.w3.org/2000/svg">
<path id="Vector" d="M24.4268 0.352653H2.83187C2.58888 0.344287 2.34667 0.38413 2.11968 0.469803C1.8927 0.555476 1.68561 0.685223 1.51075 0.851302C1.3359 1.01738 1.19687 1.21639 1.10196 1.43644C1.00706 1.6565 0.958225 1.89309 0.958374 2.13211V23.4856C0.958225 23.7246 1.00706 23.9612 1.10196 24.1813C1.19687 24.4013 1.3359 24.6003 1.51075 24.7664C1.68561 24.9325 1.8927 25.0622 2.11968 25.1479C2.34667 25.2336 2.58888 25.2734 2.83187 25.265H24.4268C24.6698 25.2734 24.912 25.2336 25.139 25.1479C25.366 25.0622 25.5731 24.9325 25.7479 24.7664C25.9228 24.6003 26.0618 24.4013 26.1567 24.1813C26.2516 23.9612 26.3004 23.7246 26.3003 23.4856V2.13211C26.3004 1.89309 26.2516 1.6565 26.1567 1.43644C26.0618 1.21639 25.9228 1.01738 25.7479 0.851302C25.5731 0.685223 25.366 0.555476 25.139 0.469803C24.912 0.38413 24.6698 0.344287 24.4268 0.352653ZM8.64241 21.2079H4.81397V9.95282H8.64241V21.2079ZM6.72366 8.42249C6.45047 8.44599 6.1753 8.41324 5.9157 8.32635C5.6561 8.23945 5.41778 8.10031 5.21595 7.9178C5.01412 7.7353 4.8532 7.51343 4.74347 7.26637C4.63374 7.0193 4.57761 6.75247 4.57865 6.48288C4.58013 6.2113 4.63882 5.94297 4.75102 5.69479C4.86322 5.44661 5.02651 5.22398 5.23059 5.04092C5.43466 4.85786 5.6751 4.71834 5.93674 4.63116C6.19839 4.54398 6.47557 4.51102 6.75081 4.53438C7.02176 4.51635 7.29359 4.55324 7.54943 4.64278C7.80527 4.73232 8.03967 4.87258 8.23808 5.05487C8.43648 5.23715 8.59467 5.45758 8.70282 5.70246C8.81097 5.94735 8.86677 6.21147 8.86677 6.47843C8.86677 6.7454 8.81097 7.00952 8.70282 7.2544C8.59467 7.49929 8.43648 7.71971 8.23808 7.902C8.03967 8.08429 7.80527 8.22455 7.54943 8.31409C7.29359 8.40362 7.02176 8.44052 6.75081 8.42249H6.72366ZM22.4447 21.2079H18.6163V15.1844C18.6163 13.6719 18.0642 12.6487 16.6794 12.6487C16.2494 12.6495 15.83 12.7806 15.4786 13.0242C15.1271 13.2678 14.8606 13.6121 14.7154 14.01C14.6209 14.2971 14.5781 14.5982 14.5887 14.8997V21.1812H10.7603C10.7603 21.1812 10.8055 10.9849 10.7603 9.92613H14.5887V11.5276C14.9356 10.9374 15.4405 10.4519 16.0485 10.1241C16.6564 9.79621 17.3442 9.63851 18.037 9.66811C20.5531 9.66811 22.4447 11.2785 22.4447 14.7307V21.2079Z" fill="white"/>
</svg>
