<svg width="31" height="26" viewBox="0 0 31 26" fill="none" xmlns="http://www.w3.org/2000/svg">
<path id="Vector" d="M10.3723 25.3082C12.6757 25.3248 14.9595 24.8723 17.0912 23.9769C19.2229 23.0815 21.1601 21.761 22.7905 20.092C24.4209 18.423 25.7121 16.4386 26.5891 14.254C27.4662 12.0693 27.9117 9.72782 27.8999 7.36525V6.55536C29.0983 5.65605 30.1335 4.54799 30.9584 3.28161C29.8348 3.79275 28.6425 4.12731 27.4217 4.274C28.7046 3.48419 29.6648 2.24406 30.1242 0.783521C28.9181 1.51886 27.5976 2.0359 26.2206 2.31203C25.2934 1.29495 24.0646 0.620432 22.7252 0.393268C21.3858 0.166104 20.0107 0.399017 18.8137 1.05582C17.6166 1.71262 16.6645 2.75654 16.1054 4.02538C15.5463 5.29421 15.4114 6.71693 15.7218 8.07247C13.2708 7.95006 10.8727 7.29851 8.68409 6.16043C6.49549 5.02234 4.56571 3.42333 3.02089 1.46793C2.23248 2.8593 1.99029 4.50639 2.34356 6.07435C2.69683 7.6423 3.61903 9.01343 4.92268 9.90897C3.9443 9.87861 2.98718 9.60875 2.13116 9.12189V9.20174C2.13317 10.6594 2.62558 12.0717 3.52522 13.2002C4.42487 14.3286 5.67663 15.1041 7.06915 15.3956C6.16204 15.6464 5.21109 15.6815 4.28875 15.4983C4.6842 16.7541 5.45172 17.852 6.48437 18.6392C7.51702 19.4264 8.76336 19.8636 10.0497 19.8899C7.86866 21.6489 5.17264 22.6014 2.39807 22.5933C1.90727 22.5971 1.41679 22.5666 0.930023 22.5021C3.74968 24.3474 7.02752 25.3215 10.3723 25.3082Z" fill="white"/>
</svg>
